<svg width="52" height="50" viewBox="0 0 52 50" fill="none" xmlns="http://www.w3.org/2000/svg">
<path fill-rule="evenodd" clip-rule="evenodd" d="M38.702 16.4254C38.8749 16.6696 39.0235 16.9329 39.1448 17.2123C46.2978 19.131 51.5637 25.4801 51.5637 32.9966C51.5637 42.0276 43.9622 49.375 34.6187 49.375C29.7407 49.375 25.3384 47.3716 22.2438 44.1723H10.4969C7.96875 44.1723 5.91182 42.1842 5.91182 39.7405C5.91182 38.3371 6.59102 37.0847 7.64769 36.2722C6.59102 35.4596 5.91182 34.2072 5.91182 32.8038C5.91182 31.4004 6.59102 30.148 7.64769 29.3354C6.59102 28.5229 5.91182 27.2705 5.91182 25.867C5.91182 24.4636 6.59102 23.2112 7.64769 22.3987C6.59102 21.5861 5.91182 20.3337 5.91182 18.9303C5.91182 16.4866 7.96875 14.4985 10.4969 14.4985H13.0965C12.589 13.7854 12.2911 12.9226 12.2911 11.9936C12.2911 11.0645 12.5891 10.2018 13.0965 9.48862H5.11441C2.58622 9.48862 0.529297 7.50047 0.529297 5.05681C0.529297 2.61315 2.58622 0.625 5.11441 0.625H29.5351C32.0633 0.625 34.1203 2.61315 34.1203 5.05681C34.1203 5.98585 33.8223 6.84861 33.3149 7.56175H41.297C43.8252 7.56175 45.8821 9.54989 45.8821 11.9936C45.8821 14.4372 43.8252 16.4254 41.297 16.4254H38.702ZM43.8885 11.9936C43.8885 10.6124 42.726 9.48862 41.297 9.48862H16.8762C15.4472 9.48862 14.2846 10.6124 14.2846 11.9936C14.2846 13.3747 15.4472 14.4985 16.8762 14.4985H34.9177H41.297C42.726 14.4985 43.8885 13.3747 43.8885 11.9936ZM2.52283 5.05681C2.52283 6.43799 3.68535 7.56175 5.11441 7.56175H29.5351C30.9642 7.56175 32.1267 6.43799 32.1267 5.05681C32.1267 3.67563 30.9642 2.55187 29.5351 2.55187H5.11441C3.68535 2.55187 2.52283 3.67563 2.52283 5.05681ZM34.9177 16.4254H10.4969C9.06798 16.4254 7.90535 17.5491 7.90535 18.9303C7.90535 20.3115 9.06798 21.4352 10.4969 21.4352H22.6278C25.6972 18.4611 29.9394 16.6181 34.6187 16.6181C35.1004 16.6181 35.577 16.6388 36.0485 16.677C35.7036 16.5155 35.3192 16.4254 34.9177 16.4254ZM20.9246 23.3621H10.4969C9.06788 23.3621 7.90535 24.4859 7.90535 25.867C7.90535 27.2483 9.06788 28.372 10.4969 28.372H18.3626C18.9182 26.5506 19.7931 24.8605 20.9246 23.3621ZM17.9049 30.2989H10.4969C9.06788 30.2989 7.90535 31.4225 7.90535 32.8038C7.90535 34.1851 9.06788 35.3087 10.4969 35.3087H17.8434C17.7325 34.5531 17.6737 33.7814 17.6737 32.9966C17.6737 32.0777 17.7537 31.1768 17.9049 30.2989ZM7.90535 39.7405C7.90535 41.1218 9.06788 42.2455 10.4969 42.2455H20.6419C19.5704 40.7373 18.7533 39.0481 18.2504 37.2356H10.4969C9.06788 37.2356 7.90535 38.3593 7.90535 39.7405ZM19.6673 32.9966C19.6673 40.9652 26.3745 47.4481 34.6187 47.4481C42.863 47.4481 49.5702 40.9652 49.5702 32.9966C49.5702 25.028 42.863 18.545 34.6187 18.545C26.3745 18.545 19.6673 25.028 19.6673 32.9966ZM32.0762 29.7035C32.0762 30.8741 33.2146 31.8265 34.614 31.8265C37.2854 31.8265 39.4588 33.7793 39.4588 36.1795C39.4588 38.2227 37.8838 39.9407 35.7675 40.4069V40.8886C35.7675 41.5043 35.2509 42.0036 34.614 42.0036C33.977 42.0036 33.4604 41.5043 33.4604 40.8886V40.4069C31.3442 39.9407 29.7691 38.2227 29.7691 36.1795C29.7691 35.5639 30.2857 35.0646 30.9227 35.0646C31.5596 35.0646 32.0762 35.5639 32.0762 36.1795C32.0762 37.3503 33.2146 38.3027 34.614 38.3027C36.0133 38.3027 37.1517 37.3503 37.1517 36.1795C37.1517 35.0088 36.0133 34.0564 34.614 34.0564C31.9425 34.0564 29.7691 32.1037 29.7691 29.7035C29.7691 27.6603 31.3442 25.9424 33.4604 25.4761V24.8962C33.4604 24.2805 33.977 23.7813 34.614 23.7813C35.2509 23.7813 35.7675 24.2805 35.7675 24.8962V25.4761C37.8838 25.9424 39.4588 27.6603 39.4588 29.7035C39.4588 30.3192 38.9423 30.8185 38.3053 30.8185C37.6683 30.8185 37.1517 30.3192 37.1517 29.7035C37.1517 28.5328 36.0133 27.5804 34.614 27.5804C33.2146 27.5804 32.0762 28.5328 32.0762 29.7035Z" fill="#FF872C"/>
<path d="M39.1448 17.2123L38.9155 17.3119L38.9636 17.4225L39.0801 17.4538L39.1448 17.2123ZM38.702 16.4254V16.1754H38.2186L38.498 16.5698L38.702 16.4254ZM22.2438 44.1723L22.4235 43.9985L22.3498 43.9223H22.2438V44.1723ZM7.64769 36.2722L7.80009 36.4703L8.0578 36.2722L7.80009 36.074L7.64769 36.2722ZM7.64769 29.3354L7.80009 29.5336L8.0578 29.3354L7.80009 29.1372L7.64769 29.3354ZM7.64769 22.3987L7.80009 22.5969L8.0578 22.3987L7.80009 22.2005L7.64769 22.3987ZM13.0965 14.4985V14.7485H13.5813L13.3002 14.3535L13.0965 14.4985ZM13.0965 9.48862L13.3002 9.63356L13.5812 9.23862H13.0965V9.48862ZM33.3149 7.56175L33.1112 7.4168L32.8301 7.81175H33.3149V7.56175ZM22.6278 21.4352V21.6852H22.729L22.8017 21.6148L22.6278 21.4352ZM36.0485 16.677L36.0283 16.9262L36.1545 16.4506L36.0485 16.677ZM20.9246 23.3621L21.1241 23.5128L21.4267 23.1121H20.9246V23.3621ZM18.3626 28.372V28.622H18.5477L18.6017 28.4449L18.3626 28.372ZM17.9049 30.2989L18.1513 30.3413L18.2016 30.0489H17.9049V30.2989ZM17.8434 35.3087V35.5587H18.1328L18.0907 35.2724L17.8434 35.3087ZM20.6419 42.2455V42.4955H21.1262L20.8457 42.1007L20.6419 42.2455ZM18.2504 37.2356L18.4913 37.1688L18.4404 36.9856H18.2504V37.2356ZM35.7675 40.4069L35.7137 40.1628L35.5175 40.206V40.4069H35.7675ZM33.4604 40.4069H33.7104V40.206L33.5142 40.1628L33.4604 40.4069ZM33.4604 25.4761L33.5142 25.7203L33.7104 25.677V25.4761H33.4604ZM35.7675 25.4761H35.5175V25.677L35.7137 25.7203L35.7675 25.4761ZM39.3742 17.1127C39.246 16.8175 39.0889 16.5392 38.906 16.2809L38.498 16.5698C38.6609 16.8 38.8011 17.0483 38.9155 17.3119L39.3742 17.1127ZM51.8137 32.9966C51.8137 25.3588 46.4637 18.9166 39.2096 16.9708L39.0801 17.4538C46.1319 19.3453 51.3137 25.6015 51.3137 32.9966H51.8137ZM34.6187 49.625C44.0922 49.625 51.8137 42.1737 51.8137 32.9966H51.3137C51.3137 41.8816 43.8322 49.125 34.6187 49.125V49.625ZM22.0641 44.3462C25.2046 47.5929 29.6712 49.625 34.6187 49.625V49.125C29.8101 49.125 25.4721 47.1503 22.4235 43.9985L22.0641 44.3462ZM10.4969 44.4223H22.2438V43.9223H10.4969V44.4223ZM5.66182 39.7405C5.66182 42.3302 7.83876 44.4223 10.4969 44.4223V43.9223C8.09874 43.9223 6.16182 42.0382 6.16182 39.7405H5.66182ZM7.49529 36.074C6.38164 36.9304 5.66182 38.2539 5.66182 39.7405H6.16182C6.16182 38.4203 6.8004 37.2391 7.80009 36.4703L7.49529 36.074ZM5.66182 32.8038C5.66182 34.2904 6.38164 35.614 7.49529 36.4703L7.80009 36.074C6.8004 35.3052 6.16182 34.124 6.16182 32.8038H5.66182ZM7.49529 29.1372C6.38164 29.9936 5.66182 31.3171 5.66182 32.8038H6.16182C6.16182 31.4836 6.8004 30.3023 7.80009 29.5336L7.49529 29.1372ZM5.66182 25.867C5.66182 27.3537 6.38164 28.6772 7.49529 29.5336L7.80009 29.1372C6.8004 28.3685 6.16182 27.1873 6.16182 25.867H5.66182ZM7.49529 22.2005C6.38164 23.0569 5.66182 24.3804 5.66182 25.867H6.16182C6.16182 24.5468 6.8004 23.3656 7.80009 22.5969L7.49529 22.2005ZM5.66182 18.9303C5.66182 20.4169 6.38164 21.7405 7.49529 22.5969L7.80009 22.2005C6.8004 21.4317 6.16182 20.2505 6.16182 18.9303H5.66182ZM10.4969 14.2485C7.83876 14.2485 5.66182 16.3406 5.66182 18.9303H6.16182C6.16182 16.6327 8.09874 14.7485 10.4969 14.7485V14.2485ZM13.0965 14.2485H10.4969V14.7485H13.0965V14.2485ZM12.0411 11.9936C12.0411 12.9771 12.3566 13.8901 12.8928 14.6435L13.3002 14.3535C12.8213 13.6806 12.5411 12.8681 12.5411 11.9936H12.0411ZM12.8928 9.34367C12.3567 10.097 12.0411 11.01 12.0411 11.9936H12.5411C12.5411 11.119 12.8214 10.3065 13.3002 9.63356L12.8928 9.34367ZM5.11441 9.73862H13.0965V9.23862H5.11441V9.73862ZM0.279297 5.05681C0.279297 7.64649 2.45623 9.73862 5.11441 9.73862V9.23862C2.71621 9.23862 0.779297 7.35445 0.779297 5.05681H0.279297ZM5.11441 0.375C2.45623 0.375 0.279297 2.46713 0.279297 5.05681H0.779297C0.779297 2.75917 2.71621 0.875 5.11441 0.875V0.375ZM29.5351 0.375H5.11441V0.875H29.5351V0.375ZM34.3703 5.05681C34.3703 2.46713 32.1933 0.375 29.5351 0.375V0.875C31.9333 0.875 33.8703 2.75916 33.8703 5.05681H34.3703ZM33.5186 7.70669C34.0546 6.95335 34.3703 6.04035 34.3703 5.05681H33.8703C33.8703 5.93135 33.59 6.74387 33.1112 7.4168L33.5186 7.70669ZM41.297 7.31175H33.3149V7.81175H41.297V7.31175ZM46.1321 11.9936C46.1321 9.40388 43.9551 7.31175 41.297 7.31175V7.81175C43.6952 7.81175 45.6321 9.69591 45.6321 11.9936H46.1321ZM41.297 16.6754C43.9551 16.6754 46.1321 14.5832 46.1321 11.9936H45.6321C45.6321 14.2912 43.6952 16.1754 41.297 16.1754V16.6754ZM38.702 16.6754H41.297V16.1754H38.702V16.6754ZM41.297 9.73862C42.596 9.73862 43.6385 10.7584 43.6385 11.9936H44.1385C44.1385 10.4664 42.856 9.23862 41.297 9.23862V9.73862ZM16.8762 9.73862H41.297V9.23862H16.8762V9.73862ZM14.5346 11.9936C14.5346 10.7584 15.5772 9.73862 16.8762 9.73862V9.23862C15.3172 9.23862 14.0346 10.4664 14.0346 11.9936H14.5346ZM16.8762 14.2485C15.5772 14.2485 14.5346 13.2287 14.5346 11.9936H14.0346C14.0346 13.5207 15.3172 14.7485 16.8762 14.7485V14.2485ZM34.9177 14.2485H16.8762V14.7485H34.9177V14.2485ZM41.297 14.2485H34.9177V14.7485H41.297V14.2485ZM43.6385 11.9936C43.6385 13.2287 42.596 14.2485 41.297 14.2485V14.7485C42.856 14.7485 44.1385 13.5207 44.1385 11.9936H43.6385ZM5.11441 7.31175C3.81535 7.31175 2.77283 6.29198 2.77283 5.05681H2.27283C2.27283 6.584 3.55536 7.81175 5.11441 7.81175V7.31175ZM29.5351 7.31175H5.11441V7.81175H29.5351V7.31175ZM31.8767 5.05681C31.8767 6.29198 30.8342 7.31175 29.5351 7.31175V7.81175C31.0942 7.81175 32.3767 6.584 32.3767 5.05681H31.8767ZM29.5351 2.80187C30.8342 2.80187 31.8767 3.82164 31.8767 5.05681H32.3767C32.3767 3.52962 31.0942 2.30187 29.5351 2.30187V2.80187ZM5.11441 2.80187H29.5351V2.30187H5.11441V2.80187ZM2.77283 5.05681C2.77283 3.82164 3.81535 2.80187 5.11441 2.80187V2.30187C3.55536 2.30187 2.27283 3.52962 2.27283 5.05681H2.77283ZM10.4969 16.6754H34.9177V16.1754H10.4969V16.6754ZM8.15535 18.9303C8.15535 17.6951 9.19797 16.6754 10.4969 16.6754V16.1754C8.93799 16.1754 7.65535 17.4031 7.65535 18.9303H8.15535ZM10.4969 21.1852C9.19797 21.1852 8.15535 20.1655 8.15535 18.9303H7.65535C7.65535 20.4575 8.93799 21.6852 10.4969 21.6852V21.1852ZM22.6278 21.1852H10.4969V21.6852H22.6278V21.1852ZM34.6187 16.3681C29.8729 16.3681 25.5687 18.2375 22.4538 21.2557L22.8017 21.6148C25.8257 18.6847 30.006 16.8681 34.6187 16.8681V16.3681ZM36.0687 16.4278C35.5909 16.3891 35.1075 16.3681 34.6187 16.3681V16.8681C35.0932 16.8681 35.5631 16.8885 36.0283 16.9262L36.0687 16.4278ZM34.9177 16.6754C35.2815 16.6754 35.6299 16.7571 35.9425 16.9034L36.1545 16.4506C35.7774 16.274 35.3568 16.1754 34.9177 16.1754V16.6754ZM10.4969 23.6121H20.9246V23.1121H10.4969V23.6121ZM8.15535 25.867C8.15535 24.6319 9.19788 23.6121 10.4969 23.6121V23.1121C8.93788 23.1121 7.65535 24.3399 7.65535 25.867H8.15535ZM10.4969 28.122C9.19787 28.122 8.15535 27.1023 8.15535 25.867H7.65535C7.65535 27.3943 8.93789 28.622 10.4969 28.622V28.122ZM18.3626 28.122H10.4969V28.622H18.3626V28.122ZM20.7251 23.2115C19.5764 24.7326 18.6879 26.4488 18.1235 28.299L18.6017 28.4449C19.1485 26.6524 20.0097 24.9885 21.1241 23.5128L20.7251 23.2115ZM10.4969 30.5489H17.9049V30.0489H10.4969V30.5489ZM8.15535 32.8038C8.15535 31.5685 9.19787 30.5489 10.4969 30.5489V30.0489C8.93789 30.0489 7.65535 31.2765 7.65535 32.8038H8.15535ZM10.4969 35.0587C9.19787 35.0587 8.15535 34.0391 8.15535 32.8038H7.65535C7.65535 34.3311 8.93789 35.5587 10.4969 35.5587V35.0587ZM17.8434 35.0587H10.4969V35.5587H17.8434V35.0587ZM17.4237 32.9966C17.4237 33.7939 17.4834 34.5777 17.596 35.345L18.0907 35.2724C17.9815 34.5285 17.9237 33.7689 17.9237 32.9966H17.4237ZM17.6585 30.2564C17.505 31.1481 17.4237 32.0632 17.4237 32.9966H17.9237C17.9237 32.0923 18.0024 31.2056 18.1513 30.3413L17.6585 30.2564ZM10.4969 41.9955C9.19787 41.9955 8.15535 40.9758 8.15535 39.7405H7.65535C7.65535 41.2678 8.93789 42.4955 10.4969 42.4955V41.9955ZM20.6419 41.9955H10.4969V42.4955H20.6419V41.9955ZM18.0095 37.3024C18.5204 39.1437 19.3503 40.8592 20.4381 42.3903L20.8457 42.1007C19.7905 40.6155 18.9863 38.9525 18.4913 37.1688L18.0095 37.3024ZM10.4969 37.4856H18.2504V36.9856H10.4969V37.4856ZM8.15535 39.7405C8.15535 38.5053 9.19787 37.4856 10.4969 37.4856V36.9856C8.93789 36.9856 7.65535 38.2132 7.65535 39.7405H8.15535ZM34.6187 47.1981C26.5045 47.1981 19.9173 40.8191 19.9173 32.9966H19.4173C19.4173 41.1112 26.2445 47.6981 34.6187 47.6981V47.1981ZM49.3202 32.9966C49.3202 40.8191 42.733 47.1981 34.6187 47.1981V47.6981C42.993 47.6981 49.8202 41.1112 49.8202 32.9966H49.3202ZM34.6187 18.795C42.733 18.795 49.3202 25.174 49.3202 32.9966H49.8202C49.8202 24.882 42.993 18.295 34.6187 18.295V18.795ZM19.9173 32.9966C19.9173 25.174 26.5045 18.795 34.6187 18.795V18.295C26.2445 18.295 19.4173 24.882 19.4173 32.9966H19.9173ZM34.614 31.5765C33.309 31.5765 32.3262 30.6961 32.3262 29.7035H31.8262C31.8262 31.0521 33.1202 32.0765 34.614 32.0765V31.5765ZM39.7088 36.1795C39.7088 33.6167 37.3977 31.5765 34.614 31.5765V32.0765C37.1732 32.0765 39.2088 33.9418 39.2088 36.1795H39.7088ZM35.8213 40.6511C38.0315 40.1641 39.7088 38.3599 39.7088 36.1795H39.2088C39.2088 38.0855 37.736 39.7172 35.7137 40.1628L35.8213 40.6511ZM36.0175 40.8886V40.4069H35.5175V40.8886H36.0175ZM34.614 42.2536C35.3809 42.2536 36.0175 41.6503 36.0175 40.8886H35.5175C35.5175 41.3583 35.121 41.7536 34.614 41.7536V42.2536ZM33.2104 40.8886C33.2104 41.6503 33.847 42.2536 34.614 42.2536V41.7536C34.107 41.7536 33.7104 41.3583 33.7104 40.8886H33.2104ZM33.2104 40.4069V40.8886H33.7104V40.4069H33.2104ZM29.5191 36.1795C29.5191 38.3599 31.1964 40.1641 33.4066 40.6511L33.5142 40.1628C31.4919 39.7172 30.0191 38.0855 30.0191 36.1795H29.5191ZM30.9227 34.8146C30.1557 34.8146 29.5191 35.4178 29.5191 36.1795H30.0191C30.0191 35.7099 30.4157 35.3146 30.9227 35.3146V34.8146ZM32.3262 36.1795C32.3262 35.4178 31.6896 34.8146 30.9227 34.8146V35.3146C31.4297 35.3146 31.8262 35.7099 31.8262 36.1795H32.3262ZM34.614 38.0527C33.3091 38.0527 32.3262 37.1723 32.3262 36.1795H31.8262C31.8262 37.5283 33.1202 38.5527 34.614 38.5527V38.0527ZM36.9017 36.1795C36.9017 37.1723 35.9189 38.0527 34.614 38.0527V38.5527C36.1078 38.5527 37.4017 37.5283 37.4017 36.1795H36.9017ZM34.614 34.3064C35.9189 34.3064 36.9017 35.1868 36.9017 36.1795H37.4017C37.4017 34.8308 36.1078 33.8064 34.614 33.8064V34.3064ZM29.5191 29.7035C29.5191 32.2663 31.8303 34.3064 34.614 34.3064V33.8064C32.0547 33.8064 30.0191 31.9411 30.0191 29.7035H29.5191ZM33.4066 25.232C31.1964 25.719 29.5191 27.5231 29.5191 29.7035H30.0191C30.0191 27.7976 31.4919 26.1658 33.5142 25.7203L33.4066 25.232ZM33.2104 24.8962V25.4761H33.7104V24.8962H33.2104ZM34.614 23.5313C33.847 23.5313 33.2104 24.1345 33.2104 24.8962H33.7104C33.7104 24.4266 34.107 24.0313 34.614 24.0313V23.5313ZM36.0175 24.8962C36.0175 24.1345 35.3809 23.5313 34.614 23.5313V24.0313C35.121 24.0313 35.5175 24.4266 35.5175 24.8962H36.0175ZM36.0175 25.4761V24.8962H35.5175V25.4761H36.0175ZM39.7088 29.7035C39.7088 27.5231 38.0315 25.719 35.8213 25.232L35.7137 25.7203C37.736 26.1658 39.2088 27.7976 39.2088 29.7035H39.7088ZM38.3053 31.0685C39.0722 31.0685 39.7088 30.4652 39.7088 29.7035H39.2088C39.2088 30.1732 38.8123 30.5685 38.3053 30.5685V31.0685ZM36.9017 29.7035C36.9017 30.4652 37.5383 31.0685 38.3053 31.0685V30.5685C37.7983 30.5685 37.4017 30.1732 37.4017 29.7035H36.9017ZM34.614 27.8304C35.9189 27.8304 36.9017 28.7108 36.9017 29.7035H37.4017C37.4017 28.3548 36.1078 27.3304 34.614 27.3304V27.8304ZM32.3262 29.7035C32.3262 28.7108 33.3091 27.8304 34.614 27.8304V27.3304C33.1202 27.3304 31.8262 28.3548 31.8262 29.7035H32.3262Z" fill="#FF872C"/>
</svg>
