<svg width="608" height="710" viewBox="0 0 608 710" fill="none" xmlns="http://www.w3.org/2000/svg">
<path fill-rule="evenodd" clip-rule="evenodd" d="M412.366 233.241C414.91 236.708 417.096 240.447 418.88 244.415C524.112 271.66 601.581 361.817 601.581 468.552C601.581 596.792 489.752 701.125 352.294 701.125C280.532 701.125 215.767 672.677 170.241 627.247H-2.57437C-39.7673 627.247 -70.0279 599.016 -70.0279 564.315C-70.0279 544.387 -60.0359 526.603 -44.4906 515.065C-60.0359 503.526 -70.0279 485.742 -70.0279 465.814C-70.0279 445.886 -60.0359 428.102 -44.4906 416.563C-60.0359 405.025 -70.0279 387.241 -70.0279 367.311C-70.0279 347.383 -60.0359 329.599 -44.4906 318.062C-60.0359 306.523 -70.0279 288.739 -70.0279 268.81C-70.0279 234.11 -39.7673 205.879 -2.57437 205.879H35.6698C28.2037 195.753 23.8211 183.501 23.8211 170.309C23.8211 157.116 28.2051 144.866 35.6698 134.738H-81.7591C-118.953 134.738 -149.213 106.507 -149.213 71.8067C-149.213 37.1067 -118.953 8.875 -81.7591 8.875H277.507C314.701 8.875 344.962 37.1067 344.962 71.8067C344.962 84.9991 340.578 97.2503 333.114 107.377H450.542C487.736 107.377 517.996 135.608 517.996 170.309C517.996 205.008 487.736 233.241 450.542 233.241H412.366ZM488.667 170.309C488.667 150.696 471.565 134.738 450.542 134.738H91.2749C70.2522 134.738 53.1485 150.696 53.1485 170.309C53.1485 189.921 70.2522 205.879 91.2749 205.879H356.693H450.542C471.565 205.879 488.667 189.921 488.667 170.309ZM-119.885 71.8067C-119.885 91.4195 -102.783 107.377 -81.7591 107.377H277.507C298.531 107.377 315.633 91.4195 315.633 71.8067C315.633 52.1939 298.531 36.2366 277.507 36.2366H-81.7591C-102.783 36.2366 -119.885 52.1939 -119.885 71.8067ZM356.693 233.241H-2.57437C-23.596 233.241 -40.7 249.197 -40.7 268.81C-40.7 288.423 -23.596 304.38 -2.57437 304.38H175.89C221.045 262.148 283.455 235.977 352.294 235.977C359.381 235.977 366.393 236.271 373.329 236.813C368.255 234.52 362.6 233.241 356.693 233.241ZM150.833 331.742H-2.57437C-23.5975 331.742 -40.7 347.7 -40.7 367.311C-40.7 386.926 -23.5975 402.882 -2.57437 402.882H113.142C121.316 377.019 134.187 353.019 150.833 331.742ZM106.409 430.244H-2.57437C-23.5975 430.244 -40.7 446.199 -40.7 465.814C-40.7 485.428 -23.5975 501.384 -2.57437 501.384H105.504C103.872 490.654 103.007 479.696 103.007 468.552C103.007 455.503 104.184 442.711 106.409 430.244ZM-40.7 564.315C-40.7 583.93 -23.5975 599.886 -2.57437 599.886H146.674C130.911 578.47 118.89 554.483 111.492 528.745H-2.57437C-23.5975 528.745 -40.7 544.702 -40.7 564.315ZM132.336 468.552C132.336 581.706 231.01 673.763 352.294 673.763C473.581 673.763 572.254 581.706 572.254 468.552C572.254 355.398 473.581 263.339 352.294 263.339C231.01 263.339 132.336 355.398 132.336 468.552ZM314.89 421.79C314.89 438.412 331.638 451.936 352.225 451.936C391.526 451.936 423.5 479.666 423.5 513.749C423.5 542.762 400.329 567.158 369.195 573.778V580.618C369.195 589.361 361.595 596.451 352.225 596.451C342.854 596.451 335.254 589.361 335.254 580.618V573.778C304.121 567.158 280.949 542.762 280.949 513.749C280.949 505.007 288.549 497.917 297.921 497.917C307.29 497.917 314.89 505.007 314.89 513.749C314.89 530.374 331.638 543.898 352.225 543.898C372.811 543.898 389.559 530.374 389.559 513.749C389.559 497.125 372.811 483.601 352.225 483.601C312.923 483.601 280.949 455.873 280.949 421.79C280.949 392.776 304.121 368.382 335.254 361.761V353.526C335.254 344.783 342.854 337.694 352.225 337.694C361.595 337.694 369.195 344.783 369.195 353.526V361.761C400.329 368.382 423.5 392.776 423.5 421.79C423.5 430.533 415.901 437.623 406.53 437.623C397.159 437.623 389.559 430.533 389.559 421.79C389.559 405.166 372.811 391.642 352.225 391.642C331.638 391.642 314.89 405.166 314.89 421.79Z" fill="#694DC5"/>
<path d="M418.88 244.415L415.507 245.829L416.214 247.399L417.928 247.844L418.88 244.415ZM412.366 233.241V229.691H405.254L409.365 235.291L412.366 233.241ZM170.241 627.247L172.884 624.779L171.8 623.697H170.241V627.247ZM-44.4907 515.065L-42.2487 517.878L-38.4574 515.065L-42.2487 512.251L-44.4907 515.065ZM-44.4907 416.563L-42.2487 419.377L-38.4574 416.563L-42.2487 413.748L-44.4907 416.563ZM-44.4907 318.061L-42.2487 320.876L-38.4574 318.061L-42.2487 315.247L-44.4907 318.061ZM35.6697 205.879V209.429H42.8018L38.6664 203.82L35.6697 205.879ZM35.6697 134.738L38.6664 136.797L42.8003 131.188H35.6697V134.738ZM333.113 107.377L330.117 105.319L325.981 110.927H333.113V107.377ZM175.89 304.38V307.93H177.379L178.448 306.93L175.89 304.38ZM373.329 236.813L373.032 240.352L374.888 233.598L373.329 236.813ZM150.833 331.742L153.768 333.882L158.22 328.192H150.833V331.742ZM113.142 402.882V406.432H115.865L116.66 403.918L113.142 402.882ZM106.409 430.244L110.034 430.846L110.774 426.694H106.409V430.244ZM105.504 501.383V504.934H109.761L109.142 500.868L105.504 501.383ZM146.674 599.886V603.436H153.799L149.672 597.83L146.674 599.886ZM111.491 528.745L115.035 527.797L114.287 525.195H111.491V528.745ZM369.195 573.778L368.403 570.312L365.517 570.925V573.778H369.195ZM335.254 573.778H338.932V570.925L336.045 570.312L335.254 573.778ZM335.254 361.761L336.045 365.228L338.932 364.613V361.761H335.254ZM369.195 361.761H365.517V364.613L368.403 365.228L369.195 361.761ZM422.255 243C420.369 238.808 418.058 234.857 415.367 231.189L409.365 235.291C411.761 238.56 413.824 242.086 415.507 245.829L422.255 243ZM605.259 468.552C605.259 360.095 526.552 268.616 419.833 240.985L417.928 247.844C521.671 274.703 597.904 363.541 597.904 468.552H605.259ZM352.294 704.675C491.664 704.675 605.259 598.867 605.259 468.552H597.904C597.904 594.719 487.839 697.575 352.294 697.575V704.675ZM167.597 629.716C213.798 675.819 279.509 704.675 352.294 704.675V697.575C281.552 697.575 217.734 669.534 172.884 624.779L167.597 629.716ZM-2.57446 630.797H170.241V623.697H-2.57446V630.797ZM-73.7059 564.315C-73.7059 601.089 -41.6798 630.797 -2.57446 630.797V623.697C-37.8551 623.697 -66.3502 596.942 -66.3502 564.315H-73.7059ZM-46.7328 512.251C-63.1163 524.412 -73.7059 543.205 -73.7059 564.315H-66.3502C-66.3502 545.568 -56.9557 528.795 -42.2487 517.878L-46.7328 512.251ZM-73.7059 465.814C-73.7059 486.924 -63.1163 505.719 -46.7328 517.878L-42.2487 512.251C-56.9557 501.334 -66.3502 484.561 -66.3502 465.814H-73.7059ZM-46.7328 413.748C-63.1163 425.909 -73.7059 444.703 -73.7059 465.814H-66.3502C-66.3502 447.067 -56.9557 430.293 -42.2487 419.377L-46.7328 413.748ZM-73.7059 367.311C-73.7059 388.422 -63.1163 407.216 -46.7328 419.377L-42.2487 413.748C-56.9557 402.833 -66.3502 386.06 -66.3502 367.311H-73.7059ZM-46.7328 315.247C-63.1163 327.408 -73.7059 346.202 -73.7059 367.311H-66.3502C-66.3502 348.565 -56.9557 331.791 -42.2487 320.876L-46.7328 315.247ZM-73.7059 268.81C-73.7059 289.92 -63.1163 308.715 -46.7328 320.876L-42.2487 315.247C-56.9557 304.33 -66.3502 287.557 -66.3502 268.81H-73.7059ZM-2.57446 202.329C-41.6798 202.329 -73.7059 232.036 -73.7059 268.81H-66.3502C-66.3502 236.184 -37.8551 209.429 -2.57446 209.429V202.329ZM35.6697 202.329H-2.57446V209.429H35.6697V202.329ZM20.1431 170.309C20.1431 184.275 24.7846 197.239 32.6729 207.938L38.6664 203.82C31.621 194.264 27.4989 182.727 27.4989 170.309H20.1431ZM32.6729 132.68C24.7861 143.377 20.1431 156.342 20.1431 170.309H27.4989C27.4989 157.89 31.6225 146.352 38.6664 136.797L32.6729 132.68ZM-81.7592 138.288H35.6697V131.188H-81.7592V138.288ZM-152.891 71.8066C-152.891 108.58 -120.865 138.288 -81.7592 138.288V131.188C-117.04 131.188 -145.535 104.433 -145.535 71.8066H-152.891ZM-81.7592 5.32495C-120.865 5.32495 -152.891 35.0332 -152.891 71.8066H-145.535C-145.535 39.1802 -117.04 12.425 -81.7592 12.425V5.32495ZM277.507 5.32495H-81.7592V12.425H277.507V5.32495ZM348.64 71.8066C348.64 35.0332 316.613 5.32495 277.507 5.32495V12.425C312.788 12.425 341.284 39.18 341.284 71.8066H348.64ZM336.11 109.435C343.996 98.7375 348.64 85.7729 348.64 71.8066H341.284C341.284 84.2251 337.161 95.7629 330.117 105.319L336.11 109.435ZM450.542 103.827H333.113V110.927H450.542V103.827ZM521.674 170.309C521.674 133.535 489.647 103.827 450.542 103.827V110.927C485.824 110.927 514.318 137.682 514.318 170.309H521.674ZM450.542 236.791C489.647 236.791 521.674 207.081 521.674 170.309H514.318C514.318 202.935 485.824 229.691 450.542 229.691V236.791ZM412.366 236.791H450.542V229.691H412.366V236.791ZM450.542 138.288C469.653 138.288 484.989 152.769 484.989 170.309H492.345C492.345 148.623 473.478 131.188 450.542 131.188V138.288ZM91.2749 138.288H450.542V131.188H91.2749V138.288ZM56.8263 170.309C56.8263 152.769 72.1646 138.288 91.2749 138.288V131.188C68.3396 131.188 49.4706 148.623 49.4706 170.309H56.8263ZM91.2749 202.329C72.1646 202.329 56.8263 187.847 56.8263 170.309H49.4706C49.4706 191.994 68.3396 209.429 91.2749 209.429V202.329ZM356.693 202.329H91.2749V209.429H356.693V202.329ZM450.542 202.329H356.693V209.429H450.542V202.329ZM484.989 170.309C484.989 187.847 469.653 202.329 450.542 202.329V209.429C473.478 209.429 492.345 191.994 492.345 170.309H484.989ZM-81.7592 103.827C-100.87 103.827 -116.207 89.3461 -116.207 71.8066H-123.563C-123.563 93.4927 -104.695 110.927 -81.7592 110.927V103.827ZM277.507 103.827H-81.7592V110.927H277.507V103.827ZM311.955 71.8066C311.955 89.3461 296.619 103.827 277.507 103.827V110.927C300.444 110.927 319.311 93.4927 319.311 71.8066H311.955ZM277.507 39.7865C296.619 39.7865 311.955 54.2672 311.955 71.8066H319.311C319.311 50.1206 300.444 32.6865 277.507 32.6865V39.7865ZM-81.7592 39.7865H277.507V32.6865H-81.7592V39.7865ZM-116.207 71.8066C-116.207 54.2672 -100.87 39.7865 -81.7592 39.7865V32.6865C-104.695 32.6865 -123.563 50.1206 -123.563 71.8066H-116.207ZM-2.57446 236.791H356.693V229.691H-2.57446V236.791ZM-37.0223 268.81C-37.0223 251.27 -21.6837 236.791 -2.57446 236.791V229.691C-25.5084 229.691 -44.378 247.124 -44.378 268.81H-37.0223ZM-2.57446 300.83C-21.6837 300.83 -37.0223 286.35 -37.0223 268.81H-44.378C-44.378 290.496 -25.5084 307.93 -2.57446 307.93V300.83ZM175.89 300.83H-2.57446V307.93H175.89V300.83ZM352.294 232.427C282.476 232.427 219.155 258.972 173.33 301.831L178.448 306.93C222.936 265.323 284.434 239.527 352.294 239.527V232.427ZM373.626 233.275C366.597 232.725 359.485 232.427 352.294 232.427V239.527C359.275 239.527 366.188 239.817 373.032 240.352L373.626 233.275ZM356.693 236.791C362.045 236.791 367.171 237.951 371.769 240.028L374.888 233.598C369.341 231.091 363.153 229.691 356.693 229.691V236.791ZM-2.57446 335.292H150.833V328.192H-2.57446V335.292ZM-37.0223 367.311C-37.0223 349.773 -21.685 335.292 -2.57446 335.292V328.192C-25.51 328.192 -44.378 345.627 -44.378 367.311H-37.0223ZM-2.57446 399.332C-21.6852 399.332 -37.0223 384.853 -37.0223 367.311H-44.378C-44.378 388.999 -25.5099 406.432 -2.57446 406.432V399.332ZM113.142 399.332H-2.57446V406.432H113.142V399.332ZM147.898 329.603C130.999 351.203 117.928 375.573 109.625 401.846L116.66 403.918C124.704 378.464 137.373 354.837 153.768 333.882L147.898 329.603ZM-2.57446 433.794H106.409V426.694H-2.57446V433.794ZM-37.0223 465.814C-37.0223 448.273 -21.6852 433.794 -2.57446 433.794V426.694C-25.5099 426.694 -44.378 444.126 -44.378 465.814H-37.0223ZM-2.57446 497.833C-21.6852 497.833 -37.0223 483.355 -37.0223 465.814H-44.378C-44.378 487.502 -25.5099 504.934 -2.57446 504.934V497.833ZM105.504 497.833H-2.57446V504.934H105.504V497.833ZM99.3294 468.552C99.3294 479.873 100.208 491.003 101.864 501.899L109.142 500.868C107.536 490.305 106.685 479.518 106.685 468.552H99.3294ZM102.784 429.641C100.525 442.303 99.3294 455.297 99.3294 468.552H106.685C106.685 455.711 107.843 443.119 110.034 430.846L102.784 429.641ZM-2.57446 596.336C-21.6852 596.336 -37.0223 581.856 -37.0223 564.315H-44.378C-44.378 586.003 -25.5099 603.436 -2.57446 603.436V596.336ZM146.674 596.336H-2.57446V603.436H146.674V596.336ZM107.947 529.694C115.464 555.84 127.673 580.201 143.676 601.942L149.672 597.83C134.149 576.74 122.318 553.125 115.035 527.797L107.947 529.694ZM-2.57446 532.295H111.491V525.195H-2.57446V532.295ZM-37.0223 564.315C-37.0223 546.775 -21.6852 532.295 -2.57446 532.295V525.195C-25.5099 525.195 -44.378 542.627 -44.378 564.315H-37.0223ZM352.294 670.213C232.922 670.213 136.014 579.631 136.014 468.552H128.658C128.658 583.779 229.097 677.313 352.294 677.313V670.213ZM568.576 468.552C568.576 579.631 471.668 670.213 352.294 670.213V677.313C475.493 677.313 575.932 583.779 575.932 468.552H568.576ZM352.294 266.889C471.668 266.889 568.576 357.471 568.576 468.552H575.932C575.932 353.324 475.493 259.789 352.294 259.789V266.889ZM136.014 468.552C136.014 357.471 232.922 266.889 352.294 266.889V259.789C229.097 259.789 128.658 353.324 128.658 468.552H136.014ZM352.225 448.386C333.027 448.386 318.568 435.885 318.568 421.79H311.212C311.212 440.94 330.249 455.486 352.225 455.486V448.386ZM427.178 513.749C427.178 477.357 393.178 448.386 352.225 448.386V455.486C389.875 455.486 419.822 481.974 419.822 513.749H427.178ZM369.986 577.246C402.502 570.33 427.178 544.711 427.178 513.749H419.822C419.822 540.814 398.155 563.984 368.403 570.312L369.986 577.246ZM372.873 580.618V573.778H365.517V580.618H372.873ZM352.225 600.001C363.507 600.001 372.873 591.434 372.873 580.618H365.517C365.517 587.288 359.684 592.901 352.225 592.901V600.001ZM331.576 580.618C331.576 591.434 340.941 600.001 352.225 600.001V592.901C344.766 592.901 338.932 587.288 338.932 580.618H331.576ZM331.576 573.778V580.618H338.932V573.778H331.576ZM277.271 513.749C277.271 544.711 301.947 570.33 334.462 577.246L336.045 570.312C306.294 563.984 284.627 540.814 284.627 513.749H277.271ZM297.921 494.367C286.637 494.367 277.271 502.933 277.271 513.749H284.627C284.627 507.081 290.462 501.467 297.921 501.467V494.367ZM318.568 513.749C318.568 502.933 309.203 494.367 297.921 494.367V501.467C305.379 501.467 311.212 507.081 311.212 513.749H318.568ZM352.225 540.348C333.028 540.348 318.568 527.847 318.568 513.749H311.212C311.212 532.902 330.249 547.448 352.225 547.448V540.348ZM385.881 513.749C385.881 527.847 371.422 540.348 352.225 540.348V547.448C374.201 547.448 393.237 532.902 393.237 513.749H385.881ZM352.225 487.151C371.422 487.151 385.881 499.653 385.881 513.749H393.237C393.237 494.597 374.201 480.051 352.225 480.051V487.151ZM277.271 421.79C277.271 458.181 311.273 487.151 352.225 487.151V480.051C314.574 480.051 284.627 453.564 284.627 421.79H277.271ZM334.462 358.294C301.947 365.21 277.271 390.828 277.271 421.79H284.627C284.627 394.726 306.294 371.554 336.045 365.228L334.462 358.294ZM331.576 353.526V361.761H338.932V353.526H331.576ZM352.225 334.144C340.941 334.144 331.576 342.71 331.576 353.526H338.932C338.932 346.858 344.766 341.244 352.225 341.244V334.144ZM372.873 353.526C372.873 342.71 363.507 334.144 352.225 334.144V341.244C359.684 341.244 365.517 346.858 365.517 353.526H372.873ZM372.873 361.761V353.526H365.517V361.761H372.873ZM427.178 421.79C427.178 390.828 402.502 365.21 369.986 358.294L368.403 365.228C398.155 371.554 419.822 394.726 419.822 421.79H427.178ZM406.53 441.173C417.812 441.173 427.178 432.606 427.178 421.79H419.822C419.822 428.459 413.989 434.073 406.53 434.073V441.173ZM385.881 421.79C385.881 432.606 395.246 441.173 406.53 441.173V434.073C399.071 434.073 393.237 428.459 393.237 421.79H385.881ZM352.225 395.192C371.422 395.192 385.881 407.693 385.881 421.79H393.237C393.237 402.638 374.201 388.092 352.225 388.092V395.192ZM318.568 421.79C318.568 407.693 333.028 395.192 352.225 395.192V388.092C330.249 388.092 311.212 402.638 311.212 421.79H318.568Z" fill="#694DC5"/>
</svg>
